<mxfile host="app.diagrams.net" modified="2024-01-27T10:47:22.064Z" agent="Mozilla/5.0 (Windows NT 10.0; Win64; x64) AppleWebKit/537.36 (KHTML, like Gecko) Chrome/120.0.0.0 Safari/537.36" version="23.0.2" etag="izEtqExK5VWbt3hVgb9o" type="github">
  <diagram name="Page-1" id="0kLXF9M54FuxHJyEXefW">
    <mxGraphModel>
      <root>
        <mxCell id="0" />
        <mxCell id="1" parent="0" />
      </root>
    </mxGraphModel>
  </diagram>
</mxfile>
